<svg width="28" height="28" viewBox="0 0 28 28" fill="none" xmlns="http://www.w3.org/2000/svg">
<g clip-path="url(#clip0_169_138)">
<path d="M4.10216 23.8979C2.76502 22.6065 1.69847 21.0616 0.96474 19.3536C0.231014 17.6455 -0.155193 15.8084 -0.171346 13.9495C-0.1875 12.0906 0.166724 10.2471 0.870656 8.52656C1.57459 6.80601 2.61413 5.24288 3.92863 3.92839C5.24313 2.61389 6.80625 1.57434 8.5268 0.870412C10.2474 0.16648 12.0909 -0.187744 13.9498 -0.171591C15.8087 -0.155437 17.6458 0.23077 19.3538 0.964496C21.0619 1.69822 22.6067 2.76477 23.8982 4.10192C26.4484 6.74235 27.8595 10.2788 27.8276 13.9495C27.7957 17.6203 26.3233 21.1317 23.7276 23.7274C21.1319 26.3231 17.6205 27.7955 13.9498 27.8274C10.279 27.8592 6.74259 26.4481 4.10216 23.8979ZM6.07616 21.9239C8.17774 24.0255 11.0281 25.2061 14.0002 25.2061C16.9722 25.2061 19.8226 24.0255 21.9242 21.9239C24.0257 19.8223 25.2064 16.972 25.2064 13.9999C25.2064 11.0278 24.0257 8.17749 21.9242 6.07592C19.8226 3.97434 16.9722 2.79369 14.0002 2.79369C11.0281 2.79369 8.17774 3.97434 6.07616 6.07592C3.97458 8.17749 2.79393 11.0278 2.79393 13.9999C2.79393 16.972 3.97458 19.8223 6.07616 21.9239ZM19.9362 10.0379L15.9742 13.9999L19.9362 17.9619L17.9622 19.9359L14.0002 15.9739L10.0382 19.9359L8.06416 17.9619L12.0262 13.9999L8.06416 10.0379L10.0382 8.06392L14.0002 12.0259L17.9622 8.06392L19.9362 10.0379Z" fill="white" fill-opacity="0.44"/>
</g>
<defs>
<clipPath id="clip0_169_138">
<rect width="28" height="28" fill="white"/>
</clipPath>
</defs>
</svg>
