<svg width="36" height="36" viewBox="0 0 36 36" fill="none" xmlns="http://www.w3.org/2000/svg">
<path d="M27 22.5H9L3 28.5V4.5C3 4.10218 3.15804 3.72064 3.43934 3.43934C3.72064 3.15804 4.10218 3 4.5 3H27C27.3978 3 27.7794 3.15804 28.0607 3.43934C28.342 3.72064 28.5 4.10218 28.5 4.5V21C28.5 21.3978 28.342 21.7794 28.0607 22.0607C27.7794 22.342 27.3978 22.5 27 22.5ZM34.5 13.5V34.5L28.5 28.5H12C11.6022 28.5 11.2206 28.342 10.9393 28.0607C10.658 27.7794 10.5 27.3978 10.5 27V25.5H31.5V12H33C33.3978 12 33.7794 12.158 34.0607 12.4393C34.342 12.7206 34.5 13.1022 34.5 13.5ZM12.285 6C10.98 6 9.93 6.3 9.12 6.885C8.34 7.5 7.95 8.355 7.965 9.54L7.98 9.585H10.875C10.89 9.135 11.025 8.79 11.295 8.55C11.5728 8.31967 11.9242 8.19718 12.285 8.205C12.75 8.205 13.14 8.355 13.41 8.625C13.68 8.91 13.8 9.3 13.8 9.75C13.8 10.23 13.695 10.635 13.455 10.98C13.245 11.325 12.93 11.625 12.54 11.865C11.775 12.375 11.25 12.825 10.965 13.23C10.665 13.62 10.5 14.25 10.5 15H13.5C13.5 14.535 13.56 14.16 13.695 13.89C13.83 13.62 14.085 13.35 14.46 13.11C15.135 12.75 15.69 12.315 16.125 11.715C16.56 11.115 16.785 10.5 16.785 9.75C16.785 8.61 16.38 7.695 15.57 7.02C14.775 6.345 13.68 6 12.285 6ZM10.5 16.5V19.5H13.5V16.5H10.5ZM19.5 19.5H22.5V16.5H19.5V19.5ZM19.5 6V15H22.5V6H19.5Z" fill="#6B6B6B"/>
</svg>
