<svg width="37" height="29" viewBox="0 0 37 29" fill="none" xmlns="http://www.w3.org/2000/svg">
<path d="M11.1 14.5C14.6786 14.5 17.575 11.6623 17.575 8.15625C17.575 4.6502 14.6786 1.8125 11.1 1.8125C7.52141 1.8125 4.625 4.6502 4.625 8.15625C4.625 11.6623 7.52141 14.5 11.1 14.5ZM15.54 16.3125H15.0602C13.8577 16.8789 12.5222 17.2188 11.1 17.2188C9.67781 17.2188 8.34813 16.8789 7.13984 16.3125H6.66C2.98312 16.3125 0 19.2352 0 22.8375V24.4688C0 25.9697 1.24297 27.1875 2.775 27.1875H19.425C20.957 27.1875 22.2 25.9697 22.2 24.4688V22.8375C22.2 19.2352 19.2169 16.3125 15.54 16.3125ZM27.75 14.5C30.8141 14.5 33.3 12.0645 33.3 9.0625C33.3 6.06055 30.8141 3.625 27.75 3.625C24.6859 3.625 22.2 6.06055 22.2 9.0625C22.2 12.0645 24.6859 14.5 27.75 14.5ZM30.525 16.3125H30.3053C29.5017 16.5844 28.6519 16.7656 27.75 16.7656C26.8481 16.7656 25.9983 16.5844 25.1947 16.3125H24.975C23.7956 16.3125 22.7087 16.6467 21.7548 17.1848C23.1655 18.6744 24.05 20.6512 24.05 22.8375V25.0125C24.05 25.1371 24.0211 25.2561 24.0153 25.375H34.225C35.757 25.375 37 24.1572 37 22.6562C37 19.1502 34.1036 16.3125 30.525 16.3125Z" fill="white"/>
</svg>
