<svg width="36" height="36" viewBox="0 0 36 36" fill="none" xmlns="http://www.w3.org/2000/svg">
<path d="M25.9545 14.286L30.7275 19.059C31.502 19.8232 32.1177 20.733 32.5391 21.7362C32.9605 22.7393 33.1794 23.8159 33.183 24.9039C33.1867 25.992 32.975 27.07 32.5603 28.0759C32.1457 29.0819 31.5361 29.9958 30.7667 30.7652C29.9973 31.5346 29.0834 32.1442 28.0774 32.5589C27.0715 32.9736 25.9935 33.1852 24.9054 33.1815C23.8174 33.1779 22.7408 32.959 21.7377 32.5376C20.7345 32.1162 19.8247 31.5005 19.0605 30.726L17.4705 29.136C17.2555 28.9285 17.084 28.6803 16.9659 28.4059C16.8479 28.1314 16.7857 27.8362 16.7829 27.5375C16.7802 27.2387 16.837 26.9424 16.95 26.6658C17.063 26.3893 17.2299 26.138 17.4411 25.9266C17.6522 25.7153 17.9034 25.5481 18.1798 25.4348C18.4563 25.3216 18.7526 25.2645 19.0513 25.2669C19.3501 25.2694 19.6453 25.3313 19.9199 25.4491C20.1945 25.5669 20.4428 25.7382 20.6505 25.953L22.2435 27.5445C22.9479 28.2426 23.9001 28.6332 24.8919 28.6309C25.8836 28.6286 26.834 28.2335 27.5351 27.5322C28.2363 26.8308 28.6311 25.8803 28.6331 24.8886C28.6351 23.8968 28.2443 22.9447 27.546 22.2405L22.773 17.4675C22.2571 16.9514 21.6018 16.597 20.8875 16.4478C20.1732 16.2986 19.4308 16.361 18.7515 16.6275C18.5095 16.7235 18.2825 16.8215 18.0705 16.9215L17.3745 17.247C16.4445 17.667 15.729 17.847 14.8185 16.938C13.5105 15.63 13.8495 14.4225 15.444 13.323C17.0323 12.23 18.9533 11.7279 20.8734 11.9038C22.7934 12.0797 24.5912 12.9226 25.9545 14.286ZM16.9395 5.27099L18.5295 6.86099C18.9395 7.28515 19.1666 7.8534 19.1618 8.44335C19.1569 9.0333 18.9205 9.59774 18.5036 10.0151C18.0866 10.4325 17.5224 10.6694 16.9324 10.6748C16.3425 10.6802 15.774 10.4537 15.3495 10.044L13.758 8.45399C13.4122 8.09573 12.9984 7.80993 12.541 7.61327C12.0835 7.41661 11.5915 7.31302 11.0936 7.30855C10.5956 7.30409 10.1018 7.39883 9.6409 7.58725C9.17999 7.77567 8.76122 8.054 8.40902 8.406C8.05682 8.758 7.77826 9.17661 7.58957 9.63742C7.40089 10.0982 7.30587 10.592 7.31005 11.0899C7.31424 11.5878 7.41755 12.0799 7.61395 12.5375C7.81035 12.9951 8.09592 13.409 8.45398 13.755L13.227 18.528C13.7429 19.0441 14.3981 19.3985 15.1125 19.5477C15.8268 19.6969 16.5691 19.6344 17.2485 19.368C17.4905 19.272 17.7175 19.174 17.9295 19.074L18.6255 18.7485C19.5555 18.3285 20.2725 18.1485 21.1815 19.0575C22.4895 20.3655 22.1505 21.573 20.556 22.6725C18.9676 23.7655 17.0466 24.2676 15.1266 24.0917C13.2066 23.9157 11.4088 23.0729 10.0455 21.7095L5.27248 16.9365C4.49797 16.1723 3.88228 15.2624 3.46085 14.2593C3.03942 13.2562 2.82059 12.1796 2.81694 11.0915C2.8133 10.0035 3.02491 8.92547 3.43961 7.91954C3.85431 6.91361 4.46389 5.99965 5.23326 5.23027C6.00264 4.4609 6.9166 3.85132 7.92253 3.43662C8.92846 3.02192 10.0065 2.8103 11.0945 2.81395C12.1826 2.8176 13.2592 3.03643 14.2623 3.45786C15.2654 3.87929 16.1753 4.49648 16.9395 5.27099Z" fill="white"/>
</svg>
