<svg width="23" height="22" viewBox="0 0 23 22" fill="none" xmlns="http://www.w3.org/2000/svg">
<path d="M21.3758 11.2137C21.3758 10.4224 21.3103 9.84485 21.1685 9.24597H11.9473V12.8179H17.3599C17.2508 13.7055 16.6615 15.0424 15.352 15.9406L15.3336 16.0602L18.2492 18.2737L18.4512 18.2935C20.3063 16.6144 21.3758 14.144 21.3758 11.2137Z" fill="#4285F4"/>
<path d="M11.9467 20.625C14.5984 20.625 16.8245 19.7694 18.4506 18.2936L15.3514 15.9408C14.522 16.5076 13.4089 16.9033 11.9467 16.9033C9.34946 16.9033 7.14512 15.2243 6.35933 12.9036L6.24415 12.9131L3.2125 15.2125L3.17285 15.3205C4.78791 18.4647 8.10536 20.625 11.9467 20.625Z" fill="#34CAA5"/>
<path d="M6.36006 12.9036C6.15272 12.3047 6.03273 11.663 6.03273 11C6.03273 10.3369 6.15272 9.69524 6.34915 9.09636L6.34366 8.96881L3.274 6.63257L3.17357 6.67938C2.50792 7.98412 2.12598 9.44929 2.12598 11C2.12598 12.5507 2.50792 14.0158 3.17357 15.3205L6.36006 12.9036Z" fill="#FDCF24"/>
<path d="M11.9467 5.09664C13.7909 5.09664 15.0349 5.87733 15.7443 6.52974L18.5161 3.8775C16.8138 2.32681 14.5985 1.375 11.9467 1.375C8.10539 1.375 4.78792 3.53526 3.17285 6.6794L6.34844 9.09638C7.14514 6.77569 9.34949 5.09664 11.9467 5.09664Z" fill="#EB4335"/>
</svg>
