<svg width="36" height="36" viewBox="0 0 36 36" fill="none" xmlns="http://www.w3.org/2000/svg">
<path d="M7.5 31.5C6.675 31.5 5.969 31.2065 5.382 30.6195C4.795 30.0325 4.501 29.326 4.5 28.5V7.5C4.5 6.675 4.794 5.969 5.382 5.382C5.97 4.795 6.676 4.501 7.5 4.5H28.5C29.325 4.5 30.0315 4.794 30.6195 5.382C31.2075 5.97 31.501 6.676 31.5 7.5V28.5C31.5 29.325 31.2065 30.0315 30.6195 30.6195C30.0325 31.2075 29.326 31.501 28.5 31.5H7.5ZM10.5 25.5H21V22.5H10.5V25.5ZM10.5 19.5H25.5V16.5H10.5V19.5ZM10.5 13.5H25.5V10.5H10.5V13.5Z" fill="#6B6B6B" fill-opacity="0.419608"/>
</svg>
