<svg width="36" height="36" viewBox="0 0 36 36" fill="none" xmlns="http://www.w3.org/2000/svg">
<path d="M18 18C19.5575 18 21.0801 17.5381 22.3751 16.6728C23.6702 15.8075 24.6795 14.5776 25.2756 13.1386C25.8716 11.6997 26.0275 10.1163 25.7237 8.58867C25.4198 7.06107 24.6698 5.65788 23.5685 4.55654C22.4671 3.4552 21.0639 2.70518 19.5363 2.40132C18.0087 2.09746 16.4253 2.25341 14.9864 2.84945C13.5474 3.44549 12.3175 4.45485 11.4522 5.74989C10.5869 7.04492 10.125 8.56748 10.125 10.125C10.125 12.2136 10.9547 14.2166 12.4315 15.6935C13.9084 17.1703 15.9114 18 18 18ZM18 20.25C13.1189 20.25 3.375 23.265 3.375 29.25V33.75H32.625V29.25C32.625 23.265 22.8811 20.25 18 20.25Z" fill="white"/>
</svg>
