<svg width="30" height="30" viewBox="0 0 30 30" fill="none" xmlns="http://www.w3.org/2000/svg">
<g clip-path="url(#clip0_47_84)">
<path fill-rule="evenodd" clip-rule="evenodd" d="M13.3564 6.42823C12.9804 7.08019 12.4393 7.62163 11.7876 7.99809C11.1359 8.37455 10.3966 8.57275 9.64393 8.57275C8.8913 8.57275 8.15195 8.37455 7.50024 7.99809C6.84853 7.62163 6.30745 7.08019 5.93143 6.42823H2.14286C1.57454 6.42823 1.02949 6.20246 0.627628 5.8006C0.225765 5.39873 1.11759e-07 4.85369 1.11759e-07 4.28537C1.11759e-07 3.71705 0.225765 3.172 0.627628 2.77014C1.02949 2.36828 1.57454 2.14251 2.14286 2.14251H5.93143C6.30745 1.49055 6.84853 0.949104 7.50024 0.572644C8.15195 0.196185 8.8913 -0.00201416 9.64393 -0.00201416C10.3966 -0.00201416 11.1359 0.196185 11.7876 0.572644C12.4393 0.949104 12.9804 1.49055 13.3564 2.14251H23.0357C24.8828 2.14251 26.6541 2.87625 27.9602 4.1823C29.2663 5.48836 30 7.25975 30 9.1068C30 10.9538 29.2663 12.7252 27.9602 14.0313C26.6541 15.3373 24.8828 16.0711 23.0357 16.0711H21.9279C21.552 16.7235 21.0108 17.2655 20.3589 17.6423C19.707 18.0191 18.9673 18.2175 18.2143 18.2175C17.4613 18.2175 16.7216 18.0191 16.0697 17.6423C15.4177 17.2655 14.8766 16.7235 14.5007 16.0711H7.5C6.64752 16.0711 5.82995 16.4097 5.22716 17.0125C4.62436 17.6153 4.28571 18.4329 4.28571 19.2854C4.28571 20.1379 4.62436 20.9554 5.22716 21.5582C5.82995 22.161 6.64752 22.4997 7.5 22.4997H8.07429C8.45045 21.8482 8.99146 21.3072 9.64295 20.9311C10.2944 20.555 11.0335 20.357 11.7857 20.357C12.538 20.357 13.277 20.555 13.9285 20.9311C14.58 21.3072 15.121 21.8482 15.4971 22.4997H23.5714V20.3568C23.571 20.1446 23.6337 19.9371 23.7514 19.7605C23.8691 19.584 24.0366 19.4464 24.2326 19.3651C24.4286 19.2839 24.6443 19.2626 24.8524 19.3041C25.0605 19.3456 25.2516 19.448 25.4014 19.5982L29.6871 23.8839C29.888 24.0849 30.0008 24.3573 30.0008 24.6414C30.0008 24.9255 29.888 25.198 29.6871 25.3989L25.4014 29.6847C25.2517 29.8348 25.0608 29.9371 24.8529 29.9786C24.645 30.0202 24.4295 29.9992 24.2336 29.9182C24.0376 29.8372 23.8701 29.6999 23.7523 29.5237C23.6344 29.3475 23.5715 29.1402 23.5714 28.9282V26.7854H15.4993C15.1234 27.4378 14.5823 27.9798 13.9303 28.3566C13.2784 28.7334 12.5387 28.9318 11.7857 28.9318C11.0327 28.9318 10.293 28.7334 9.64109 28.3566C8.98916 27.9798 8.44802 27.4378 8.07214 26.7854H7.5C6.51509 26.7854 5.53982 26.5914 4.62987 26.2145C3.71993 25.8376 2.89314 25.2851 2.1967 24.5887C1.50026 23.8922 0.947814 23.0654 0.570904 22.1555C0.193993 21.2456 0 20.2703 0 19.2854C0 18.3005 0.193993 17.3252 0.570904 16.4152C0.947814 15.5053 1.50026 14.6785 2.1967 13.9821C2.89314 13.2856 3.71993 12.7332 4.62987 12.3563C5.53982 11.9794 6.51509 11.7854 7.5 11.7854H14.5029C14.879 11.1339 15.42 10.5929 16.0715 10.2168C16.723 9.84071 17.462 9.6427 18.2143 9.6427C18.9665 9.6427 19.7056 9.84071 20.357 10.2168C21.0085 10.5929 21.5495 11.1339 21.9257 11.7854H23.0357C23.7461 11.7854 24.4274 11.5032 24.9297 11.0008C25.4321 10.4985 25.7143 9.8172 25.7143 9.1068C25.7143 8.3964 25.4321 7.71509 24.9297 7.21276C24.4274 6.71043 23.7461 6.42823 23.0357 6.42823H13.3564Z" fill="#6B6B6B"/>
</g>
<defs>
<clipPath id="clip0_47_84">
<rect width="30" height="30" fill="white"/>
</clipPath>
</defs>
</svg>
