<svg width="36" height="36" viewBox="0 0 36 36" fill="none" xmlns="http://www.w3.org/2000/svg">
<path fill-rule="evenodd" clip-rule="evenodd" d="M21.4185 3.228C20.8635 3 20.1585 3 18.75 3C17.3415 3 16.638 3 16.0815 3.228C15.7153 3.37762 15.3824 3.59817 15.1018 3.87697C14.8212 4.15577 14.5985 4.4873 14.4465 4.8525C14.3055 5.187 14.2515 5.5785 14.229 6.147C14.2183 6.55875 14.1031 6.96102 13.8942 7.31603C13.6854 7.67104 13.3897 7.96714 13.035 8.1765C12.6731 8.37766 12.2663 8.48422 11.8523 8.48632C11.4382 8.48841 11.0304 8.38598 10.6665 8.1885C10.1595 7.9215 9.79199 7.7745 9.42898 7.7265C8.63486 7.62289 7.83188 7.83629 7.19398 8.3205C6.71698 8.6835 6.36448 9.2895 5.66098 10.5C4.95598 11.7105 4.60498 12.315 4.52548 12.9075C4.42048 13.6965 4.63649 14.4945 5.12549 15.126C5.34749 15.414 5.66099 15.6555 6.14549 15.9585C6.86099 16.404 7.31999 17.163 7.31999 18C7.31999 18.837 6.86099 19.596 6.14699 20.04C5.66099 20.3445 5.34748 20.586 5.12398 20.874C4.88333 21.1863 4.70661 21.543 4.60391 21.9237C4.50122 22.3043 4.47457 22.7015 4.52548 23.0925C4.60498 23.6835 4.95598 24.2895 5.66098 25.5C6.36598 26.7105 6.71698 27.315 7.19398 27.6795C7.82999 28.164 8.63399 28.377 9.42898 28.2735C9.79199 28.2255 10.1595 28.0785 10.6665 27.8115C11.0306 27.6138 11.4387 27.5112 11.853 27.5133C12.2673 27.5154 12.6744 27.6221 13.0365 27.8235C13.7655 28.2435 14.1975 29.016 14.229 29.853C14.2515 30.423 14.3055 30.813 14.4465 31.1475C14.7525 31.8825 15.3405 32.4675 16.0815 32.772C16.6365 33 17.3415 33 18.75 33C20.1585 33 20.8635 33 21.4185 32.772C21.7847 32.6224 22.1176 32.4018 22.3982 32.123C22.6788 31.8442 22.9015 31.5127 23.0535 31.1475C23.1945 30.813 23.2485 30.423 23.271 29.853C23.301 29.016 23.7345 28.242 24.465 27.8235C24.8269 27.6223 25.2337 27.5158 25.6477 27.5137C26.0617 27.5116 26.4696 27.614 26.8335 27.8115C27.3405 28.0785 27.708 28.2255 28.071 28.2735C28.866 28.3785 29.67 28.164 30.306 27.6795C30.783 27.3165 31.1355 26.7105 31.839 25.5C32.544 24.2895 32.895 23.685 32.9745 23.0925C33.0252 22.7014 32.9983 22.3042 32.8953 21.9235C32.7924 21.5428 32.6154 21.1862 32.3745 20.874C32.1525 20.586 31.839 20.3445 31.3545 20.0415C30.639 19.596 30.18 18.837 30.18 18C30.18 17.163 30.639 16.404 31.353 15.96C31.839 15.6555 32.1525 15.414 32.376 15.126C32.6166 14.8137 32.7934 14.457 32.8961 14.0763C32.9988 13.6957 33.0254 13.2985 32.9745 12.9075C32.895 12.3165 32.544 11.7105 31.839 10.5C31.134 9.2895 30.783 8.685 30.306 8.3205C29.6681 7.83629 28.8651 7.62289 28.071 7.7265C27.708 7.7745 27.3405 7.9215 26.8335 8.1885C26.4694 8.38624 26.0613 8.48883 25.6469 8.48673C25.2326 8.48463 24.8256 8.37792 24.4635 8.1765C24.1091 7.96695 23.8137 7.67078 23.6051 7.31578C23.3965 6.96079 23.2815 6.55861 23.271 6.147C23.2485 5.577 23.1945 5.187 23.0535 4.8525C22.9015 4.4873 22.6788 4.15577 22.3982 3.87697C22.1176 3.59817 21.7847 3.37762 21.4185 3.228ZM18.75 22.5C21.255 22.5 23.2845 20.4855 23.2845 18C23.2845 15.5145 21.2535 13.5 18.75 13.5C16.2465 13.5 14.2155 15.5145 14.2155 18C14.2155 20.4855 16.2465 22.5 18.75 22.5Z" fill="#6B6B6B"/>
</svg>
