<svg width="37" height="37" viewBox="0 0 37 37" fill="none" xmlns="http://www.w3.org/2000/svg">
<path d="M18.5 16.65C19.9719 16.65 21.3836 16.0653 22.4244 15.0244C23.4652 13.9836 24.05 12.5719 24.05 11.1C24.05 9.62804 23.4652 8.21637 22.4244 7.17555C21.3836 6.13472 19.9719 5.54999 18.5 5.54999C17.028 5.54999 15.6164 6.13472 14.5755 7.17555C13.5347 8.21637 12.95 9.62804 12.95 11.1C12.95 12.5719 13.5347 13.9836 14.5755 15.0244C15.6164 16.0653 17.028 16.65 18.5 16.65ZM11.1 14.8C11.1 15.7813 10.7102 16.7224 10.0163 17.4163C9.32238 18.1102 8.38127 18.5 7.39997 18.5C6.41867 18.5 5.47756 18.1102 4.78368 17.4163C4.08979 16.7224 3.69997 15.7813 3.69997 14.8C3.69997 13.8187 4.08979 12.8776 4.78368 12.1837C5.47756 11.4898 6.41867 11.1 7.39997 11.1C8.38127 11.1 9.32238 11.4898 10.0163 12.1837C10.7102 12.8776 11.1 13.8187 11.1 14.8ZM2.75647 28.3531C2.44065 28.1736 2.20415 27.8816 2.09417 27.5354C1.76821 26.4796 1.76479 25.3506 2.08436 24.2929C2.40392 23.2352 3.03191 22.297 3.88792 21.5984C4.74393 20.8997 5.78899 20.4725 6.88927 20.3714C7.98955 20.2703 9.09497 20.4999 10.064 21.0308C8.07218 22.9873 6.82574 25.5776 6.53972 28.3549C6.49779 28.7681 6.51321 29.1714 6.58597 29.5648C5.23613 29.4463 3.92881 29.0326 2.75647 28.3531ZM30.414 29.563C31.7637 29.445 33.071 29.032 34.2435 28.3531C34.5586 28.1732 34.7944 27.8813 34.9039 27.5354C35.2304 26.4795 35.2342 25.3502 34.9149 24.2922C34.5955 23.2342 33.9676 22.2955 33.1115 21.5966C32.2553 20.8977 31.2101 20.4703 30.1095 20.3692C29.009 20.268 27.9033 20.4978 26.9341 21.0289C28.9277 22.9854 30.1755 25.5765 30.4621 28.3549C30.5038 28.7585 30.4876 29.1659 30.414 29.5648M33.3 14.8C33.3 15.7813 32.9102 16.7224 32.2163 17.4163C31.5224 18.1102 30.5813 18.5 29.6 18.5C28.6187 18.5 27.6776 18.1102 26.9837 17.4163C26.2898 16.7224 25.9 15.7813 25.9 14.8C25.9 13.8187 26.2898 12.8776 26.9837 12.1837C27.6776 11.4898 28.6187 11.1 29.6 11.1C30.5813 11.1 31.5224 11.4898 32.2163 12.1837C32.9102 12.8776 33.3 13.8187 33.3 14.8ZM9.81237 29.9515C9.62945 29.7885 9.48767 29.5845 9.39861 29.3562C9.30955 29.1279 9.27573 28.8818 9.29992 28.638C9.53523 26.3615 10.6061 24.2531 12.3055 22.7203C14.005 21.1875 16.2123 20.3391 18.5009 20.3391C20.7895 20.3391 22.9968 21.1875 24.6963 22.7203C26.3957 24.2531 27.4666 26.3615 27.7019 28.638C27.7261 28.8818 27.6922 29.1279 27.6032 29.3562C27.5141 29.5845 27.3723 29.7885 27.1894 29.9515C24.8102 32.1096 21.7121 33.3034 18.5 33.3C15.2881 33.3048 12.1901 32.1107 9.81237 29.9515Z" fill="#6B6B6B"/>
</svg>
