<svg width="36" height="36" viewBox="0 0 36 36" fill="none" xmlns="http://www.w3.org/2000/svg">
<path d="M3 33V6C3 5.175 3.294 4.469 3.882 3.882C4.47 3.295 5.176 3.001 6 3H30C30.825 3 31.5315 3.294 32.1195 3.882C32.7075 4.47 33.001 5.176 33 6V24C33 24.825 32.7065 25.5315 32.1195 26.1195C31.5325 26.7075 30.826 27.001 30 27H9L3 33ZM18 22.5C18.425 22.5 18.7815 22.356 19.0695 22.068C19.3575 21.78 19.501 21.424 19.5 21C19.499 20.576 19.355 20.22 19.068 19.932C18.781 19.644 18.425 19.5 18 19.5C17.575 19.5 17.219 19.644 16.932 19.932C16.645 20.22 16.501 20.576 16.5 21C16.499 21.424 16.643 21.7805 16.932 22.0695C17.221 22.3585 17.577 22.502 18 22.5ZM16.5 16.5H19.5V7.5H16.5V16.5Z" fill="white"/>
</svg>
