<?xml version="1.0" encoding="UTF-8"?>
<svg id="Layer_1" xmlns="http://www.w3.org/2000/svg" viewBox="0 0 950 614.2012">
  <defs>
    <style>
      .cls-1 { fill: currentColor; stroke-width: 0px; }
    </style>
  </defs>
  <polygon class="cls-1" points="0 19.5266 156.213 19.5266 250.5917 464.497 345.2663 19.5266 465.9763 19.5266 339.9408 614.2012 147.0414 614.2012 0 19.5266"/>
  <path class="cls-1" d="m437.574,224.2604h144.9704s50.8876,106.5089,102.9586,190.5325v199.4083h-143.787v-194.9704l-104.142-194.9704Z"/>
  <rect class="cls-1" x="721.6889" y="446.1931" width="73.0494" height="73.0494"/>
  <path class="cls-1" d="m721.6889,384.3195h67.6603s-5.3254-40.5325,40.8284-76.6272c46.1538-36.0947,119.8225-78.501,119.8225-165.6805S886.0947,0,772.4852,0s-179.4872,76.9231-179.4872,152.6627h80.0789s5.5227-79.2899,90.7298-79.2899,90.3353,55.2268,90.3353,76.5286-.789,42.998-52.86,80.8679c-52.071,37.8698-79.5932,70.6114-79.5932,113.215v40.3353Z"/>
</svg>