<svg width="24" height="24" viewBox="0 0 24 24" fill="none" xmlns="http://www.w3.org/2000/svg">
<g clip-path="url(#clip0_201_217)">
<path fill-rule="evenodd" clip-rule="evenodd" d="M3.77734 3.12961C5.63812 1.16212 8.33608 0 11.6763 0C17.1673 0 20.8082 3.13915 21.9606 7.48934C22.0416 7.7955 21.9967 8.12104 21.8357 8.39436C21.6748 8.66768 21.411 8.86639 21.1023 8.94676C20.7937 9.02714 20.4655 8.9826 20.19 8.82295C19.9144 8.6633 19.7141 8.40161 19.6331 8.09546C18.7586 4.79881 16.0775 2.38628 11.6751 2.38628C8.92546 2.38628 6.88787 3.32767 5.53348 4.76063C4.16706 6.20672 3.40567 8.24818 3.40567 10.5891V13.2737C3.40567 15.6146 4.16706 17.6561 5.53348 19.101C6.88787 20.5363 8.92546 21.4765 11.6751 21.4765C13.6658 21.4765 15.2451 21.0184 16.4576 20.2774C17.6785 19.5317 18.4062 18.5426 18.6107 17.4079C18.8452 16.1002 18.5565 15.203 18.0598 14.5551C17.7873 14.2065 17.4561 13.9074 17.0807 13.671C16.9183 14.5647 16.6284 15.4082 16.1906 16.0692C14.5764 18.502 11.4899 18.7108 9.45471 17.9055C8.35292 17.47 7.40869 16.278 7.1152 15.0002C6.93701 14.2677 6.99636 13.4982 7.2848 12.8012C7.60355 12.0424 8.19414 11.3957 9.03492 10.9041C9.86728 10.4161 11.1038 10.1918 12.3295 10.1584C13.068 10.1381 13.8691 10.187 14.675 10.3171C14.5066 9.54154 14.2215 8.96287 13.9004 8.66578C13.3182 8.12886 12.3535 7.75064 11.3865 7.75661C10.4519 7.76376 9.65919 8.12051 9.18528 8.87219C9.0162 9.14053 8.74659 9.33126 8.43574 9.40242C8.1249 9.47357 7.79829 9.41932 7.52777 9.25161C7.25725 9.0839 7.06498 8.81645 6.99324 8.50812C6.92151 8.19978 6.9762 7.87581 7.14527 7.60746C8.15204 6.01104 9.81075 5.38226 11.3708 5.37032C12.8984 5.35959 14.4717 5.93349 15.5398 6.91902C16.62 7.91649 17.0843 9.55228 17.2046 11.0401C18.2558 11.4947 19.2494 12.1617 19.9771 13.1126C20.9165 14.3415 21.3207 15.926 20.979 17.8267C20.6302 19.7644 19.3973 21.2844 17.7194 22.3093C16.0739 23.314 14.0435 23.8628 11.6751 23.8628C8.33608 23.8628 5.63692 22.7007 3.77854 20.7332C1.93099 18.7788 1 16.1229 1 13.2737V10.5891C1 7.7399 1.93099 5.08397 3.77854 3.12961H3.77734ZM14.7833 12.7666C13.9987 12.5988 13.1968 12.5243 12.3944 12.5447C11.3227 12.5733 10.5709 12.775 10.257 12.9587C9.79511 13.2295 9.59544 13.5052 9.50643 13.7187C9.41147 13.9582 9.39546 14.2214 9.46073 14.4704C9.60747 15.1099 10.0922 15.5896 10.346 15.6886C11.7004 16.2255 13.3952 15.9415 14.1806 14.758C14.4633 14.3308 14.6882 13.6125 14.7821 12.7666H14.7833Z" fill="#660033"/>
</g>
<defs>
<clipPath id="clip0_201_217">
<rect width="24" height="24" fill="white"/>
</clipPath>
</defs>
</svg>
