<svg width="24" height="24" viewBox="0 0 24 24" fill="none" xmlns="http://www.w3.org/2000/svg">
<path d="M18.6607 3.76C17.7454 2.71937 17.2409 1.3832 17.2411 0H13.1027V16.5333C13.0714 17.4283 12.6922 18.2761 12.0451 18.898C11.3979 19.5199 10.5334 19.8672 9.63393 19.8667C7.73214 19.8667 6.15179 18.32 6.15179 16.4C6.15179 14.1067 8.375 12.3867 10.6652 13.0933V8.88C6.04464 8.26667 2 11.84 2 16.4C2 20.84 5.69643 24 9.62054 24C13.8259 24 17.2411 20.6 17.2411 16.4V8.01333C18.9192 9.21313 20.934 9.85686 23 9.85333V5.73333C23 5.73333 20.4821 5.85333 18.6607 3.76Z" fill="#660033"/>
</svg>
